<svg xmlns="http://www.w3.org/2000/svg" xmlns:xlink="http://www.w3.org/1999/xlink" width="500" zoomAndPan="magnify" viewBox="0 0 375 374.999991" height="500" preserveAspectRatio="xMidYMid meet" version="1.0"><defs><g/><clipPath id="a121920142"><path d="M 110 32 L 265 32 L 265 238.625 L 110 238.625 Z M 110 32 " clip-rule="nonzero"/></clipPath></defs><g clip-path="url(#a121920142)"><path fill="#3c5b3c" d="M 210.9375 114.34375 C 207.390625 114.34375 204.507812 111.503906 204.507812 107.96875 L 204.507812 91.6875 L 164.035156 91.6875 L 164.035156 66.117188 C 164.035156 53.25 174.542969 42.765625 187.484375 42.765625 C 200.425781 42.765625 210.9375 53.25 210.9375 66.117188 C 210.9375 88.6875 210.9375 100.363281 210.9375 114.34375 Z M 264.226562 217.042969 L 252.894531 107.105469 C 251.988281 98.347656 244.609375 91.6875 235.789062 91.6875 L 221.238281 91.6875 L 221.238281 67.351562 C 221.238281 49.464844 207.761719 33.800781 189.875 32.570312 C 170.214844 31.210938 153.730469 46.792969 153.730469 66.117188 L 153.730469 91.6875 L 139.179688 91.6875 C 130.363281 91.6875 122.984375 98.347656 122.078125 107.105469 L 110.742188 217.042969 C 109.546875 228.429688 118.53125 238.339844 129.992188 238.339844 L 150.886719 238.339844 C 150.886719 238.339844 151.132812 238.339844 151.585938 238.339844 C 158.511719 238.339844 215.222656 236.488281 218.480469 175.1875 C 218.601562 173.132812 221.363281 172.640625 222.105469 174.53125 C 227.09375 186.949219 234.429688 212.273438 222.683594 234.515625 C 221.734375 236.28125 223.054688 238.378906 225.03125 238.378906 L 244.9375 238.378906 C 256.4375 238.339844 265.421875 228.472656 264.226562 217.042969 Z M 264.226562 217.042969 " fill-opacity="1" fill-rule="nonzero"/></g><g fill="#272424" fill-opacity="1"><g transform="translate(1.099471, 305.423748)"><g><path d="M 16.625 0.71875 C 11.9375 0.71875 8.171875 -0.488281 5.328125 -2.90625 C 2.484375 -5.320312 1.023438 -8.816406 0.953125 -13.390625 L 10.59375 -13.390625 C 10.707031 -9.179688 12.695312 -7.078125 16.5625 -7.078125 C 18.238281 -7.078125 19.503906 -7.410156 20.359375 -8.078125 C 21.210938 -8.753906 21.640625 -9.671875 21.640625 -10.828125 C 21.640625 -11.710938 21.332031 -12.460938 20.71875 -13.078125 C 20.101562 -13.691406 19.335938 -14.191406 18.421875 -14.578125 C 17.515625 -14.972656 16.191406 -15.46875 14.453125 -16.0625 C 11.847656 -16.914062 9.726562 -17.75 8.09375 -18.5625 C 6.457031 -19.382812 5.035156 -20.613281 3.828125 -22.25 C 2.617188 -23.894531 2.015625 -26.015625 2.015625 -28.609375 C 2.015625 -30.765625 2.617188 -32.6875 3.828125 -34.375 C 5.035156 -36.070312 6.722656 -37.394531 8.890625 -38.34375 C 11.066406 -39.289062 13.550781 -39.765625 16.34375 -39.765625 C 18.875 -39.765625 21.242188 -39.289062 23.453125 -38.34375 C 25.671875 -37.394531 27.472656 -35.925781 28.859375 -33.9375 C 30.253906 -31.945312 30.972656 -29.46875 31.015625 -26.5 L 21.53125 -26.5 C 21.488281 -28.164062 21.039062 -29.492188 20.1875 -30.484375 C 19.332031 -31.472656 18.050781 -31.96875 16.34375 -31.96875 C 14.96875 -31.96875 13.890625 -31.640625 13.109375 -30.984375 C 12.328125 -30.335938 11.9375 -29.472656 11.9375 -28.390625 C 11.9375 -27.128906 12.503906 -26.160156 13.640625 -25.484375 C 14.773438 -24.816406 16.566406 -24.09375 19.015625 -23.3125 C 21.617188 -22.457031 23.757812 -21.613281 25.4375 -20.78125 C 27.113281 -19.945312 28.554688 -18.703125 29.765625 -17.046875 C 30.972656 -15.390625 31.578125 -13.238281 31.578125 -10.59375 C 31.578125 -8.507812 30.988281 -6.613281 29.8125 -4.90625 C 28.644531 -3.195312 26.9375 -1.832031 24.6875 -0.8125 C 22.4375 0.207031 19.75 0.71875 16.625 0.71875 Z M 16.625 0.71875 "/></g></g></g><g fill="#272424" fill-opacity="1"><g transform="translate(32.498765, 305.423748)"><g><path d="M 12.109375 0 L 2.796875 0 L 2.796875 -29 L 12.109375 -29 Z M 12.109375 -34.3125 L 2.796875 -34.3125 L 2.796875 -35.984375 L 12.109375 -35.984375 Z M 12.109375 -34.3125 "/></g></g></g><g fill="#272424" fill-opacity="1"><g transform="translate(46.274107, 305.423748)"><g><path d="M 15 0.71875 C 12.363281 0.71875 10.039062 0.273438 8.03125 -0.609375 C 6.019531 -1.503906 4.445312 -2.734375 3.3125 -4.296875 C 2.1875 -5.859375 1.546875 -7.660156 1.390625 -9.703125 L 10.203125 -9.703125 C 10.316406 -8.628906 10.78125 -7.785156 11.59375 -7.171875 C 12.414062 -6.554688 13.535156 -6.25 14.953125 -6.25 C 16.097656 -6.25 16.992188 -6.429688 17.640625 -6.796875 C 18.296875 -7.171875 18.625 -7.734375 18.625 -8.484375 C 18.625 -9.296875 18.1875 -9.894531 17.3125 -10.28125 C 16.445312 -10.675781 15.082031 -11.0625 13.21875 -11.4375 C 10.988281 -11.914062 9.144531 -12.441406 7.6875 -13.015625 C 6.238281 -13.597656 4.972656 -14.53125 3.890625 -15.8125 C 2.816406 -17.09375 2.28125 -18.847656 2.28125 -21.078125 C 2.28125 -22.722656 2.800781 -24.191406 3.84375 -25.484375 C 4.882812 -26.785156 6.332031 -27.816406 8.1875 -28.578125 C 10.050781 -29.347656 12.15625 -29.734375 14.5 -29.734375 C 16.65625 -29.734375 18.660156 -29.3125 20.515625 -28.46875 C 22.378906 -27.632812 23.890625 -26.460938 25.046875 -24.953125 C 26.203125 -23.453125 26.832031 -21.734375 26.9375 -19.796875 L 18.234375 -19.796875 C 18.160156 -20.734375 17.78125 -21.460938 17.09375 -21.984375 C 16.40625 -22.503906 15.484375 -22.765625 14.328125 -22.765625 C 13.367188 -22.765625 12.609375 -22.601562 12.046875 -22.28125 C 11.492188 -21.96875 11.21875 -21.515625 11.21875 -20.921875 C 11.21875 -20.171875 11.644531 -19.609375 12.5 -19.234375 C 13.351562 -18.867188 14.691406 -18.5 16.515625 -18.125 C 18.742188 -17.644531 20.601562 -17.125 22.09375 -16.5625 C 23.582031 -16.007812 24.863281 -15.097656 25.9375 -13.828125 C 27.019531 -12.566406 27.5625 -10.859375 27.5625 -8.703125 C 27.5625 -5.765625 26.425781 -3.457031 24.15625 -1.78125 C 21.882812 -0.113281 18.832031 0.71875 15 0.71875 Z M 15 0.71875 "/></g></g></g><g fill="#272424" fill-opacity="1"><g transform="translate(74.38285, 305.423748)"><g><path d="M 16.28125 -11.09375 L 22.875 -29 L 32.46875 -29 L 20.296875 0 L 12 0 L -0.171875 -29 L 9.65625 -29 Z M 16.28125 -11.09375 "/></g></g></g><g fill="#272424" fill-opacity="1"><g transform="translate(105.55905, 305.423748)"><g><path d="M 16.625 -29.734375 C 19.519531 -29.734375 22.164062 -29.046875 24.5625 -27.671875 C 26.96875 -26.296875 28.847656 -24.425781 30.203125 -22.0625 C 31.554688 -19.695312 32.179688 -17.082031 32.078125 -14.21875 L 10.3125 -14.21875 C 10.351562 -11.988281 10.945312 -10.238281 12.09375 -8.96875 C 13.25 -7.707031 14.796875 -7.078125 16.734375 -7.078125 C 17.992188 -7.078125 19.117188 -7.351562 20.109375 -7.90625 C 21.097656 -8.46875 21.890625 -9.269531 22.484375 -10.3125 L 31.625 -10.3125 C 30.507812 -6.78125 28.675781 -4.054688 26.125 -2.140625 C 23.582031 -0.234375 20.414062 0.71875 16.625 0.71875 C 13.832031 0.71875 11.242188 0.0859375 8.859375 -1.171875 C 6.484375 -2.429688 4.578125 -4.210938 3.140625 -6.515625 C 1.710938 -8.828125 1 -11.488281 1 -14.5 C 1 -17.507812 1.710938 -20.164062 3.140625 -22.46875 C 4.578125 -24.78125 6.484375 -26.566406 8.859375 -27.828125 C 11.242188 -29.097656 13.832031 -29.734375 16.625 -29.734375 Z M 16.625 -21.921875 C 14.84375 -21.921875 13.382812 -21.34375 12.25 -20.1875 C 11.113281 -19.039062 10.46875 -17.425781 10.3125 -15.34375 L 22.921875 -15.34375 C 22.816406 -17.3125 22.210938 -18.898438 21.109375 -20.109375 C 20.015625 -21.316406 18.519531 -21.921875 16.625 -21.921875 Z M 16.625 -21.921875 "/></g></g></g><g fill="#272424" fill-opacity="1"><g transform="translate(137.51607, 305.423748)"><g><path d="M 20.03125 -29.734375 C 22.289062 -29.734375 24.304688 -29.203125 26.078125 -28.140625 C 27.847656 -27.078125 29.234375 -25.613281 30.234375 -23.75 C 31.234375 -21.894531 31.734375 -19.78125 31.734375 -17.40625 L 31.734375 0 L 22.421875 0 L 22.421875 -15.390625 C 22.421875 -17.210938 21.984375 -18.660156 21.109375 -19.734375 C 20.234375 -20.816406 19 -21.359375 17.40625 -21.359375 C 15.84375 -21.359375 14.566406 -20.8125 13.578125 -19.71875 C 12.597656 -18.625 12.109375 -17.179688 12.109375 -15.390625 L 12.109375 0 L 2.796875 0 L 2.796875 -29 L 11.4375 -29 L 11.4375 -26.21875 C 13.738281 -28.5625 16.601562 -29.734375 20.03125 -29.734375 Z M 20.03125 -29.734375 "/></g></g></g><g fill="#272424" fill-opacity="1"><g transform="translate(170.644302, 305.423748)"><g><path d="M 19.578125 -27.890625 L 12.9375 -27.890625 L 12.9375 -12.78125 C 12.9375 -11.394531 13.316406 -10.3125 14.078125 -9.53125 C 14.847656 -8.757812 15.921875 -8.375 17.296875 -8.375 L 19.578125 -8.375 L 19.578125 0 L 14.453125 0 C 10.992188 0 8.320312 -0.960938 6.4375 -2.890625 C 4.5625 -4.828125 3.625 -7.507812 3.625 -10.9375 L 3.625 -27.890625 L -1.109375 -27.890625 L -1.109375 -29 L 3.625 -29 L 3.625 -36.703125 L 12.9375 -36.703125 L 12.9375 -29 L 19.578125 -29 Z M 19.578125 -27.890625 "/></g></g></g><g fill="#272424" fill-opacity="1"><g transform="translate(189.383354, 305.423748)"><g><path d="M 24.59375 -29 L 33.25 -29 L 33.25 0 L 24.59375 0 L 24.59375 -2.84375 C 22.40625 -0.46875 19.429688 0.71875 15.671875 0.71875 C 13.222656 0.71875 10.878906 0.0976562 8.640625 -1.140625 C 6.410156 -2.390625 4.609375 -4.175781 3.234375 -6.5 C 1.859375 -8.820312 1.171875 -11.488281 1.171875 -14.5 C 1.171875 -17.507812 1.859375 -20.175781 3.234375 -22.5 C 4.609375 -24.832031 6.410156 -26.617188 8.640625 -27.859375 C 10.878906 -29.109375 13.222656 -29.734375 15.671875 -29.734375 C 19.429688 -29.734375 22.40625 -28.539062 24.59375 -26.15625 Z M 17.40625 -7.640625 C 19.414062 -7.640625 21.070312 -8.289062 22.375 -9.59375 C 23.675781 -10.894531 24.328125 -12.53125 24.328125 -14.5 C 24.328125 -16.46875 23.675781 -18.101562 22.375 -19.40625 C 21.070312 -20.707031 19.414062 -21.359375 17.40625 -21.359375 C 15.394531 -21.359375 13.738281 -20.707031 12.4375 -19.40625 C 11.132812 -18.101562 10.484375 -16.46875 10.484375 -14.5 C 10.484375 -12.53125 11.132812 -10.894531 12.4375 -9.59375 C 13.738281 -8.289062 15.394531 -7.640625 17.40625 -7.640625 Z M 17.40625 -7.640625 "/></g></g></g><g fill="#272424" fill-opacity="1"><g transform="translate(224.2963, 305.423748)"><g><path d="M 15 0.71875 C 12.363281 0.71875 10.039062 0.273438 8.03125 -0.609375 C 6.019531 -1.503906 4.445312 -2.734375 3.3125 -4.296875 C 2.1875 -5.859375 1.546875 -7.660156 1.390625 -9.703125 L 10.203125 -9.703125 C 10.316406 -8.628906 10.78125 -7.785156 11.59375 -7.171875 C 12.414062 -6.554688 13.535156 -6.25 14.953125 -6.25 C 16.097656 -6.25 16.992188 -6.429688 17.640625 -6.796875 C 18.296875 -7.171875 18.625 -7.734375 18.625 -8.484375 C 18.625 -9.296875 18.1875 -9.894531 17.3125 -10.28125 C 16.445312 -10.675781 15.082031 -11.0625 13.21875 -11.4375 C 10.988281 -11.914062 9.144531 -12.441406 7.6875 -13.015625 C 6.238281 -13.597656 4.972656 -14.53125 3.890625 -15.8125 C 2.816406 -17.09375 2.28125 -18.847656 2.28125 -21.078125 C 2.28125 -22.722656 2.800781 -24.191406 3.84375 -25.484375 C 4.882812 -26.785156 6.332031 -27.816406 8.1875 -28.578125 C 10.050781 -29.347656 12.15625 -29.734375 14.5 -29.734375 C 16.65625 -29.734375 18.660156 -29.3125 20.515625 -28.46875 C 22.378906 -27.632812 23.890625 -26.460938 25.046875 -24.953125 C 26.203125 -23.453125 26.832031 -21.734375 26.9375 -19.796875 L 18.234375 -19.796875 C 18.160156 -20.734375 17.78125 -21.460938 17.09375 -21.984375 C 16.40625 -22.503906 15.484375 -22.765625 14.328125 -22.765625 C 13.367188 -22.765625 12.609375 -22.601562 12.046875 -22.28125 C 11.492188 -21.96875 11.21875 -21.515625 11.21875 -20.921875 C 11.21875 -20.171875 11.644531 -19.609375 12.5 -19.234375 C 13.351562 -18.867188 14.691406 -18.5 16.515625 -18.125 C 18.742188 -17.644531 20.601562 -17.125 22.09375 -16.5625 C 23.582031 -16.007812 24.863281 -15.097656 25.9375 -13.828125 C 27.019531 -12.566406 27.5625 -10.859375 27.5625 -8.703125 C 27.5625 -5.765625 26.425781 -3.457031 24.15625 -1.78125 C 21.882812 -0.113281 18.832031 0.71875 15 0.71875 Z M 15 0.71875 "/></g></g></g><g fill="#272424" fill-opacity="1"><g transform="translate(252.405048, 305.423748)"><g><path d="M 19.640625 0.71875 C 16.253906 0.71875 13.3125 0.03125 10.8125 -1.34375 C 8.320312 -2.71875 6.40625 -4.628906 5.0625 -7.078125 C 3.726562 -9.535156 3.0625 -12.363281 3.0625 -15.5625 L 3.0625 -39.046875 L 12.828125 -39.046875 L 12.828125 -16.125 C 12.828125 -13.738281 13.394531 -11.820312 14.53125 -10.375 C 15.664062 -8.925781 17.367188 -8.203125 19.640625 -8.203125 C 21.898438 -8.203125 23.597656 -8.925781 24.734375 -10.375 C 25.867188 -11.820312 26.4375 -13.738281 26.4375 -16.125 L 26.4375 -39.046875 L 36.203125 -39.046875 L 36.203125 -15.5625 C 36.203125 -12.363281 35.53125 -9.535156 34.1875 -7.078125 C 32.851562 -4.628906 30.941406 -2.71875 28.453125 -1.34375 C 25.960938 0.03125 23.023438 0.71875 19.640625 0.71875 Z M 19.640625 0.71875 "/></g></g></g><g fill="#272424" fill-opacity="1"><g transform="translate(290.552765, 305.423748)"><g><path d="M 3.625 0 L 3.625 -39.046875 L 17.578125 -39.046875 C 21.960938 -39.046875 25.800781 -38.234375 29.09375 -36.609375 C 32.382812 -34.992188 34.929688 -32.707031 36.734375 -29.75 C 38.535156 -26.800781 39.4375 -23.394531 39.4375 -19.53125 C 39.4375 -15.65625 38.535156 -12.238281 36.734375 -9.28125 C 34.929688 -6.332031 32.382812 -4.046875 29.09375 -2.421875 C 25.800781 -0.804688 21.960938 0 17.578125 0 Z M 17.34375 -8.640625 C 21.101562 -8.640625 24.070312 -9.625 26.25 -11.59375 C 28.425781 -13.570312 29.515625 -16.21875 29.515625 -19.53125 C 29.515625 -22.832031 28.425781 -25.46875 26.25 -27.4375 C 24.070312 -29.414062 21.101562 -30.40625 17.34375 -30.40625 L 13.390625 -30.40625 L 13.390625 -8.640625 Z M 17.34375 -8.640625 "/></g></g></g><g fill="#272424" fill-opacity="1"><g transform="translate(330.262104, 305.423748)"><g><path d="M 22.203125 0.71875 C 18.484375 0.71875 15.03125 -0.113281 11.84375 -1.78125 C 8.664062 -3.457031 6.128906 -5.835938 4.234375 -8.921875 C 2.335938 -12.015625 1.390625 -15.550781 1.390625 -19.53125 C 1.390625 -23.5 2.335938 -27.023438 4.234375 -30.109375 C 6.128906 -33.203125 8.664062 -35.582031 11.84375 -37.25 C 15.03125 -38.925781 18.484375 -39.765625 22.203125 -39.765625 C 25.585938 -39.765625 28.703125 -39.09375 31.546875 -37.75 C 34.390625 -36.414062 36.769531 -34.53125 38.6875 -32.09375 C 40.601562 -29.664062 41.875 -26.867188 42.5 -23.703125 L 32.46875 -23.703125 C 31.789062 -25.753906 30.550781 -27.457031 28.75 -28.8125 C 26.945312 -30.164062 24.765625 -30.84375 22.203125 -30.84375 C 20.160156 -30.84375 18.3125 -30.347656 16.65625 -29.359375 C 15 -28.378906 13.695312 -27.035156 12.75 -25.328125 C 11.800781 -23.617188 11.328125 -21.6875 11.328125 -19.53125 C 11.328125 -17.363281 11.800781 -15.425781 12.75 -13.71875 C 13.695312 -12.007812 15 -10.660156 16.65625 -9.671875 C 18.3125 -8.691406 20.160156 -8.203125 22.203125 -8.203125 C 24.765625 -8.203125 26.945312 -8.878906 28.75 -10.234375 C 30.550781 -11.585938 31.789062 -13.289062 32.46875 -15.34375 L 42.5 -15.34375 C 41.875 -12.175781 40.601562 -9.375 38.6875 -6.9375 C 36.769531 -4.507812 34.390625 -2.625 31.546875 -1.28125 C 28.703125 0.0507812 25.585938 0.71875 22.203125 0.71875 Z M 22.203125 0.71875 "/></g></g></g><g fill="#272424" fill-opacity="1"><g transform="translate(73.821326, 338.679249)"><g><path d="M 12.359375 -14.6875 L 12.359375 -5.21875 C 12.359375 -3.414062 11.867188 -2.050781 10.890625 -1.125 C 9.921875 -0.195312 8.5 0.265625 6.625 0.265625 C 4.75 0.265625 3.320312 -0.195312 2.34375 -1.125 C 1.375 -2.050781 0.890625 -3.414062 0.890625 -5.21875 L 0.890625 -14.6875 L 4.234375 -14.6875 L 4.234375 -6.203125 C 4.234375 -5.015625 4.421875 -4.1875 4.796875 -3.71875 C 5.171875 -3.257812 5.78125 -3.03125 6.625 -3.03125 C 7.46875 -3.03125 8.078125 -3.257812 8.453125 -3.71875 C 8.828125 -4.1875 9.015625 -5.015625 9.015625 -6.203125 L 9.015625 -14.6875 Z M 12.359375 -14.6875 "/></g></g></g><g fill="#272424" fill-opacity="1"><g transform="translate(96.264996, 338.679249)"><g><path d="M 1.0625 0 L 1.0625 -9.140625 L 4.21875 -9.140625 L 4.21875 -8.171875 L 4.25 -8.171875 C 5.070312 -8.992188 5.945312 -9.40625 6.875 -9.40625 C 7.320312 -9.40625 7.769531 -9.34375 8.21875 -9.21875 C 8.664062 -9.101562 9.09375 -8.921875 9.5 -8.671875 C 9.914062 -8.421875 10.25 -8.066406 10.5 -7.609375 C 10.757812 -7.148438 10.890625 -6.617188 10.890625 -6.015625 L 10.890625 0 L 7.734375 0 L 7.734375 -5.171875 C 7.734375 -5.640625 7.582031 -6.050781 7.28125 -6.40625 C 6.976562 -6.769531 6.582031 -6.953125 6.09375 -6.953125 C 5.613281 -6.953125 5.179688 -6.765625 4.796875 -6.390625 C 4.410156 -6.023438 4.21875 -5.617188 4.21875 -5.171875 L 4.21875 0 Z M 1.0625 0 "/></g></g></g><g fill="#272424" fill-opacity="1"><g transform="translate(117.230699, 338.679249)"><g><path d="M 1.359375 -14.234375 C 1.734375 -14.597656 2.175781 -14.78125 2.6875 -14.78125 C 3.195312 -14.78125 3.632812 -14.597656 4 -14.234375 C 4.375 -13.867188 4.5625 -13.425781 4.5625 -12.90625 C 4.5625 -12.394531 4.375 -11.957031 4 -11.59375 C 3.632812 -11.226562 3.195312 -11.046875 2.6875 -11.046875 C 2.175781 -11.046875 1.734375 -11.226562 1.359375 -11.59375 C 0.992188 -11.957031 0.8125 -12.394531 0.8125 -12.90625 C 0.8125 -13.425781 0.992188 -13.867188 1.359375 -14.234375 Z M 1.0625 -9.140625 L 1.0625 0 L 4.21875 0 L 4.21875 -9.140625 Z M 1.0625 -9.140625 "/></g></g></g><g fill="#272424" fill-opacity="1"><g transform="translate(131.803717, 338.679249)"><g><path d="M 5.9375 -6.828125 C 5.34375 -6.828125 4.832031 -6.601562 4.40625 -6.15625 C 3.976562 -5.71875 3.765625 -5.191406 3.765625 -4.578125 C 3.765625 -3.953125 3.976562 -3.414062 4.40625 -2.96875 C 4.832031 -2.53125 5.34375 -2.3125 5.9375 -2.3125 C 6.21875 -2.3125 6.484375 -2.347656 6.734375 -2.421875 C 6.992188 -2.492188 7.179688 -2.566406 7.296875 -2.640625 L 7.46875 -2.75 L 8.53125 -0.546875 C 8.445312 -0.492188 8.332031 -0.421875 8.1875 -0.328125 C 8.039062 -0.242188 7.703125 -0.125 7.171875 0.03125 C 6.640625 0.1875 6.070312 0.265625 5.46875 0.265625 C 4.125 0.265625 2.941406 -0.203125 1.921875 -1.140625 C 0.910156 -2.085938 0.40625 -3.222656 0.40625 -4.546875 C 0.40625 -5.867188 0.910156 -7.007812 1.921875 -7.96875 C 2.941406 -8.925781 4.125 -9.40625 5.46875 -9.40625 C 6.070312 -9.40625 6.628906 -9.332031 7.140625 -9.1875 C 7.648438 -9.050781 8.015625 -8.910156 8.234375 -8.765625 L 8.53125 -8.546875 L 7.46875 -6.390625 C 7.070312 -6.679688 6.5625 -6.828125 5.9375 -6.828125 Z M 5.9375 -6.828125 "/></g></g></g><g fill="#272424" fill-opacity="1"><g transform="translate(149.742234, 338.679249)"><g><path d="M 1.6875 -1.125 C 0.832031 -2.0625 0.40625 -3.207031 0.40625 -4.5625 C 0.40625 -5.914062 0.832031 -7.0625 1.6875 -8 C 2.539062 -8.9375 3.628906 -9.40625 4.953125 -9.40625 C 6.160156 -9.40625 7.15625 -9.023438 7.9375 -8.265625 L 7.9375 -9.140625 L 11.09375 -9.140625 L 11.09375 0 L 7.984375 0 L 7.984375 -1.03125 L 7.9375 -1.03125 C 7.15625 -0.164062 6.160156 0.265625 4.953125 0.265625 C 3.628906 0.265625 2.539062 -0.195312 1.6875 -1.125 Z M 4.375 -6.109375 C 3.96875 -5.703125 3.765625 -5.179688 3.765625 -4.546875 C 3.765625 -3.921875 3.957031 -3.410156 4.34375 -3.015625 C 4.738281 -2.617188 5.253906 -2.421875 5.890625 -2.421875 C 6.515625 -2.421875 7.023438 -2.625 7.421875 -3.03125 C 7.816406 -3.4375 8.015625 -3.945312 8.015625 -4.5625 C 8.015625 -5.1875 7.804688 -5.703125 7.390625 -6.109375 C 6.984375 -6.515625 6.484375 -6.71875 5.890625 -6.71875 C 5.285156 -6.71875 4.78125 -6.515625 4.375 -6.109375 Z M 4.375 -6.109375 "/></g></g></g><g fill="#272424" fill-opacity="1"><g transform="translate(171.099676, 338.679249)"><g><path d="M 1.0625 0 L 1.0625 -9.140625 L 4.21875 -9.140625 L 4.21875 -7.8125 L 4.25 -7.8125 C 4.28125 -7.863281 4.320312 -7.925781 4.375 -8 C 4.425781 -8.070312 4.539062 -8.195312 4.71875 -8.375 C 4.894531 -8.550781 5.082031 -8.707031 5.28125 -8.84375 C 5.488281 -8.988281 5.753906 -9.117188 6.078125 -9.234375 C 6.398438 -9.347656 6.722656 -9.40625 7.046875 -9.40625 C 7.390625 -9.40625 7.726562 -9.359375 8.0625 -9.265625 C 8.394531 -9.171875 8.640625 -9.078125 8.796875 -8.984375 L 9.046875 -8.828125 L 7.734375 -6.15625 C 7.335938 -6.488281 6.789062 -6.65625 6.09375 -6.65625 C 5.707031 -6.65625 5.378906 -6.570312 5.109375 -6.40625 C 4.835938 -6.238281 4.644531 -6.035156 4.53125 -5.796875 C 4.414062 -5.566406 4.332031 -5.367188 4.28125 -5.203125 C 4.238281 -5.035156 4.21875 -4.90625 4.21875 -4.8125 L 4.21875 0 Z M 1.0625 0 "/></g></g></g><g fill="#272424" fill-opacity="1"><g transform="translate(189.162857, 338.679249)"><g><path d="M 1.609375 -9.140625 L 1.609375 -12.546875 L 4.75 -12.546875 L 4.75 -9.140625 L 6.671875 -9.140625 L 6.671875 -6.734375 L 4.75 -6.734375 L 4.75 -3.828125 C 4.75 -2.984375 4.988281 -2.5625 5.46875 -2.5625 C 5.582031 -2.5625 5.703125 -2.582031 5.828125 -2.625 C 5.960938 -2.675781 6.066406 -2.726562 6.140625 -2.78125 L 6.25 -2.84375 L 7.03125 -0.296875 C 6.351562 0.078125 5.582031 0.265625 4.71875 0.265625 C 4.125 0.265625 3.613281 0.160156 3.1875 -0.046875 C 2.757812 -0.253906 2.4375 -0.53125 2.21875 -0.875 C 2 -1.226562 1.84375 -1.597656 1.75 -1.984375 C 1.65625 -2.367188 1.609375 -2.78125 1.609375 -3.21875 L 1.609375 -6.734375 L 0.28125 -6.734375 L 0.28125 -9.140625 Z M 1.609375 -9.140625 "/></g></g></g><g fill="#272424" fill-opacity="1"><g transform="translate(205.391921, 338.679249)"><g><path d="M 1.6875 -1.125 C 0.832031 -2.0625 0.40625 -3.207031 0.40625 -4.5625 C 0.40625 -5.914062 0.832031 -7.0625 1.6875 -8 C 2.539062 -8.9375 3.628906 -9.40625 4.953125 -9.40625 C 6.160156 -9.40625 7.15625 -9.023438 7.9375 -8.265625 L 7.9375 -9.140625 L 11.09375 -9.140625 L 11.09375 0 L 7.984375 0 L 7.984375 -1.03125 L 7.9375 -1.03125 C 7.15625 -0.164062 6.160156 0.265625 4.953125 0.265625 C 3.628906 0.265625 2.539062 -0.195312 1.6875 -1.125 Z M 4.375 -6.109375 C 3.96875 -5.703125 3.765625 -5.179688 3.765625 -4.546875 C 3.765625 -3.921875 3.957031 -3.410156 4.34375 -3.015625 C 4.738281 -2.617188 5.253906 -2.421875 5.890625 -2.421875 C 6.515625 -2.421875 7.023438 -2.625 7.421875 -3.03125 C 7.816406 -3.4375 8.015625 -3.945312 8.015625 -4.5625 C 8.015625 -5.1875 7.804688 -5.703125 7.390625 -6.109375 C 6.984375 -6.515625 6.484375 -6.71875 5.890625 -6.71875 C 5.285156 -6.71875 4.78125 -6.515625 4.375 -6.109375 Z M 4.375 -6.109375 "/></g></g></g><g fill="#272424" fill-opacity="1"><g transform="translate(226.749363, 338.679249)"><g><path d="M 0.65625 2.25 L 3.234375 0.984375 C 3.710938 1.765625 4.539062 2.15625 5.71875 2.15625 C 6.257812 2.15625 6.765625 1.976562 7.234375 1.625 C 7.703125 1.28125 7.9375 0.742188 7.9375 0.015625 L 7.9375 -0.65625 C 7.382812 -0.0390625 6.390625 0.265625 4.953125 0.265625 C 3.628906 0.265625 2.539062 -0.195312 1.6875 -1.125 C 0.832031 -2.0625 0.40625 -3.207031 0.40625 -4.5625 C 0.40625 -5.914062 0.832031 -7.0625 1.6875 -8 C 2.539062 -8.9375 3.628906 -9.40625 4.953125 -9.40625 C 6.128906 -9.40625 7.109375 -9.039062 7.890625 -8.3125 L 7.9375 -8.3125 L 7.9375 -9.140625 L 11.09375 -9.140625 L 11.09375 0.25 C 11.09375 1.726562 10.597656 2.867188 9.609375 3.671875 C 8.628906 4.484375 7.332031 4.890625 5.71875 4.890625 C 3.101562 4.890625 1.414062 4.007812 0.65625 2.25 Z M 4.375 -6.109375 C 3.96875 -5.703125 3.765625 -5.179688 3.765625 -4.546875 C 3.765625 -3.921875 3.957031 -3.410156 4.34375 -3.015625 C 4.738281 -2.617188 5.253906 -2.421875 5.890625 -2.421875 C 6.515625 -2.421875 7.023438 -2.625 7.421875 -3.03125 C 7.816406 -3.4375 8.015625 -3.945312 8.015625 -4.5625 C 8.015625 -5.1875 7.804688 -5.703125 7.390625 -6.109375 C 6.984375 -6.515625 6.484375 -6.71875 5.890625 -6.71875 C 5.285156 -6.71875 4.78125 -6.515625 4.375 -6.109375 Z M 4.375 -6.109375 "/></g></g></g><g fill="#272424" fill-opacity="1"><g transform="translate(248.106805, 338.679249)"><g><path d="M 10.3125 -4.125 L 3.6875 -4.125 C 3.6875 -3.488281 3.894531 -3.015625 4.3125 -2.703125 C 4.726562 -2.398438 5.179688 -2.25 5.671875 -2.25 C 6.179688 -2.25 6.582031 -2.316406 6.875 -2.453125 C 7.175781 -2.585938 7.515625 -2.859375 7.890625 -3.265625 L 10.171875 -2.125 C 9.222656 -0.53125 7.644531 0.265625 5.4375 0.265625 C 4.050781 0.265625 2.863281 -0.203125 1.875 -1.140625 C 0.894531 -2.085938 0.40625 -3.226562 0.40625 -4.5625 C 0.40625 -5.894531 0.894531 -7.035156 1.875 -7.984375 C 2.863281 -8.929688 4.050781 -9.40625 5.4375 -9.40625 C 6.882812 -9.40625 8.0625 -8.984375 8.96875 -8.140625 C 9.875 -7.304688 10.328125 -6.113281 10.328125 -4.5625 C 10.328125 -4.34375 10.320312 -4.195312 10.3125 -4.125 Z M 3.78125 -5.875 L 7.25 -5.875 C 7.175781 -6.351562 6.988281 -6.71875 6.6875 -6.96875 C 6.382812 -7.226562 5.992188 -7.359375 5.515625 -7.359375 C 4.992188 -7.359375 4.578125 -7.21875 4.265625 -6.9375 C 3.960938 -6.664062 3.800781 -6.3125 3.78125 -5.875 Z M 3.78125 -5.875 "/></g></g></g><g fill="#272424" fill-opacity="1"><g transform="translate(268.039699, 338.679249)"><g><path d="M 1.0625 0 L 1.0625 -9.140625 L 4.21875 -9.140625 L 4.21875 -8.171875 L 4.25 -8.171875 C 5.070312 -8.992188 5.945312 -9.40625 6.875 -9.40625 C 7.320312 -9.40625 7.769531 -9.34375 8.21875 -9.21875 C 8.664062 -9.101562 9.09375 -8.921875 9.5 -8.671875 C 9.914062 -8.421875 10.25 -8.066406 10.5 -7.609375 C 10.757812 -7.148438 10.890625 -6.617188 10.890625 -6.015625 L 10.890625 0 L 7.734375 0 L 7.734375 -5.171875 C 7.734375 -5.640625 7.582031 -6.050781 7.28125 -6.40625 C 6.976562 -6.769531 6.582031 -6.953125 6.09375 -6.953125 C 5.613281 -6.953125 5.179688 -6.765625 4.796875 -6.390625 C 4.410156 -6.023438 4.21875 -5.617188 4.21875 -5.171875 L 4.21875 0 Z M 1.0625 0 "/></g></g></g><g fill="#272424" fill-opacity="1"><g transform="translate(289.005395, 338.679249)"><g><path d="M 1.6875 -1.125 C 0.832031 -2.0625 0.40625 -3.207031 0.40625 -4.5625 C 0.40625 -5.914062 0.832031 -7.0625 1.6875 -8 C 2.539062 -8.9375 3.628906 -9.40625 4.953125 -9.40625 C 6.160156 -9.40625 7.15625 -9.023438 7.9375 -8.265625 L 7.9375 -9.140625 L 11.09375 -9.140625 L 11.09375 0 L 7.984375 0 L 7.984375 -1.03125 L 7.9375 -1.03125 C 7.15625 -0.164062 6.160156 0.265625 4.953125 0.265625 C 3.628906 0.265625 2.539062 -0.195312 1.6875 -1.125 Z M 4.375 -6.109375 C 3.96875 -5.703125 3.765625 -5.179688 3.765625 -4.546875 C 3.765625 -3.921875 3.957031 -3.410156 4.34375 -3.015625 C 4.738281 -2.617188 5.253906 -2.421875 5.890625 -2.421875 C 6.515625 -2.421875 7.023438 -2.625 7.421875 -3.03125 C 7.816406 -3.4375 8.015625 -3.945312 8.015625 -4.5625 C 8.015625 -5.1875 7.804688 -5.703125 7.390625 -6.109375 C 6.984375 -6.515625 6.484375 -6.71875 5.890625 -6.71875 C 5.285156 -6.71875 4.78125 -6.515625 4.375 -6.109375 Z M 4.375 -6.109375 "/></g></g></g></svg>