<svg xmlns="http://www.w3.org/2000/svg" xmlns:xlink="http://www.w3.org/1999/xlink" width="500" zoomAndPan="magnify" viewBox="0 0 375 374.999991" height="500" preserveAspectRatio="xMidYMid meet" version="1.0"><path fill="#3c5b3c" d="M 229.835938 150.074219 C 223.4375 150.074219 218.230469 144.941406 218.230469 138.542969 L 218.230469 109.078125 L 145.164062 109.078125 L 145.164062 62.796875 C 145.164062 39.507812 164.136719 20.535156 187.5 20.535156 C 210.863281 20.535156 229.835938 39.507812 229.835938 62.796875 C 229.835938 103.644531 229.835938 124.777344 229.835938 150.074219 Z M 326.042969 335.9375 L 305.582031 136.980469 C 303.945312 121.132812 290.625 109.078125 274.703125 109.078125 L 248.4375 109.078125 L 248.4375 65.03125 C 248.4375 32.664062 224.105469 4.316406 191.816406 2.082031 C 156.324219 -0.371094 126.5625 27.828125 126.5625 62.796875 L 126.5625 109.078125 L 100.296875 109.078125 C 84.375 109.078125 71.054688 121.132812 69.417969 136.980469 L 48.957031 335.9375 C 46.800781 356.546875 63.019531 374.480469 83.707031 374.480469 L 121.429688 374.480469 C 121.429688 374.480469 121.875 374.480469 122.695312 374.480469 C 135.195312 374.480469 237.574219 371.132812 243.453125 260.195312 C 243.675781 256.472656 248.660156 255.582031 250 259.003906 C 259.003906 281.472656 272.246094 327.304688 251.042969 367.558594 C 249.332031 370.757812 251.710938 374.554688 255.28125 374.554688 L 291.21875 374.554688 C 311.980469 374.480469 328.199219 356.621094 326.042969 335.9375 Z M 326.042969 335.9375 " fill-opacity="1" fill-rule="nonzero"/></svg>